<svg width="375" height="51" viewBox="0 0 375 51" xmlns="http://www.w3.org/2000/svg"><path d="M.569 41.234L19.389.464l3.608 1.865-18.88 40.648-3.548-1.743zm351.494 0l18.82-40.77 3.609 1.865-18.882 40.648-3.547-1.743z" fill="#4c4b68"/><path d="M33.52 49.953a9.771 9.771 0 0 1-3.848-2.887l2.405-3.247.361-.48.36.24c0 .08.03.25.091.51.06.261.17.532.33.813.161.28.402.54.722.781 1.283 1.003 2.766 1.504 4.45 1.504 1.884 0 3.387-.642 4.51-1.925 1.122-1.282 1.684-3.247 1.684-5.892V16.52H34.362v-3.548h14.612v26.157c0 3.969-.982 6.925-2.946 8.87-1.965 1.944-4.49 2.916-7.577 2.916-1.764 0-3.407-.321-4.93-.962zM44.284 6.297a2.952 2.952 0 0 1-.902-2.164c0-.882.29-1.624.872-2.225.581-.602 1.313-.902 2.195-.902.841 0 1.573.31 2.194.932.622.621.932 1.353.932 2.195 0 .841-.31 1.563-.932 2.164-.621.602-1.353.902-2.194.902-.842 0-1.564-.3-2.165-.902zm15.58 32.832c-1.925-1.203-3.428-2.886-4.51-5.051-1.083-2.165-1.624-4.63-1.624-7.396s.541-5.232 1.623-7.396c1.083-2.165 2.586-3.859 4.51-5.081 1.925-1.223 4.11-1.834 6.555-1.834 2.445 0 4.63.611 6.554 1.834 1.924 1.222 3.427 2.916 4.51 5.08 1.082 2.165 1.623 4.63 1.623 7.397 0 2.766-.54 5.231-1.623 7.396s-2.586 3.848-4.51 5.051c-1.924 1.203-4.109 1.804-6.554 1.804-2.446 0-4.63-.601-6.555-1.804zm10.733-3.187c1.222-.922 2.185-2.195 2.886-3.818.702-1.624 1.052-3.458 1.052-5.502 0-3.127-.761-5.683-2.285-7.667-1.523-1.984-3.467-2.977-5.832-2.977-2.366 0-4.31.993-5.833 2.977-1.523 1.984-2.285 4.54-2.285 7.667 0 2.044.35 3.878 1.052 5.502.702 1.623 1.664 2.896 2.887 3.818 1.222.922 2.615 1.383 4.179 1.383 1.563 0 2.956-.46 4.179-1.383zm15.04 1.954c-1.723-2.144-2.565-5.341-2.525-9.59l.06-15.334h4.21v15.333c0 3.288.57 5.663 1.713 7.126 1.143 1.463 2.656 2.195 4.54 2.195 2.085 0 3.839-.812 5.262-2.436 1.423-1.623 2.134-3.978 2.134-7.065V12.972h4.21v23.21c0 .963.03 1.754.09 2.376.06.621.23 1.252.51 1.894h-4.148a5.62 5.62 0 0 1-.511-1.864c-.06-.642-.09-1.423-.09-2.345a9.578 9.578 0 0 1-3.578 3.578c-1.504.861-3.157 1.292-4.961 1.292-2.886 0-5.191-1.072-6.915-3.217zm45.766-22.579l-1.924 3.367-.24.542-.422-.24c-.12-.442-.26-.793-.42-1.053-.16-.26-.502-.551-1.023-.872-1.042-.682-2.225-1.022-3.547-1.022-1.444 0-2.807.36-4.09 1.082-1.282.722-2.324 1.814-3.126 3.277s-1.203 3.297-1.203 5.502v14.612h-4.39v-27.54h4.51l-.12 5.051c.762-1.804 1.934-3.207 3.518-4.21a9.535 9.535 0 0 1 5.201-1.503c2.927 0 5.352 1.003 7.276 3.007zm3.575-2.345h4.21v4.87c1.082-1.683 2.445-3.026 4.088-4.028 1.644-1.002 3.388-1.504 5.232-1.504 2.445 0 4.4.933 5.862 2.797 1.464 1.864 2.195 4.76 2.195 8.689v16.656h-4.209V23.916c0-2.726-.461-4.71-1.383-5.953-.922-1.243-2.145-1.864-3.668-1.864-1.243 0-2.495.36-3.758 1.082-1.263.722-2.305 1.734-3.127 3.037-.822 1.303-1.233 2.776-1.233 4.42v15.814h-4.209v-27.48zm30.935 26.157c-1.924-1.203-3.428-2.886-4.51-5.051-1.082-2.165-1.623-4.63-1.623-7.396s.54-5.232 1.623-7.396c1.082-2.165 2.586-3.859 4.51-5.081 1.924-1.223 4.109-1.834 6.554-1.834 2.446 0 4.63.611 6.555 1.834 1.924 1.222 3.427 2.916 4.51 5.08 1.082 2.165 1.623 4.63 1.623 7.397 0 2.766-.541 5.231-1.624 7.396-1.082 2.165-2.585 3.848-4.51 5.051-1.924 1.203-4.108 1.804-6.554 1.804-2.445 0-4.63-.601-6.554-1.804zm10.733-3.187c1.223-.922 2.185-2.195 2.887-3.818.701-1.624 1.052-3.458 1.052-5.502 0-3.127-.762-5.683-2.285-7.667-1.523-1.984-3.468-2.977-5.833-2.977s-4.31.993-5.833 2.977c-1.523 1.984-2.285 4.54-2.285 7.667 0 2.044.351 3.878 1.053 5.502.701 1.623 1.663 2.896 2.886 3.818 1.223.922 2.616 1.383 4.18 1.383 1.563 0 2.956-.46 4.178-1.383zm17.616 3.307c-2.085-1.242-3.718-2.956-4.9-5.14-1.183-2.186-1.775-4.641-1.775-7.367s.592-5.171 1.774-7.336c1.183-2.165 2.816-3.868 4.901-5.111 2.085-1.243 4.43-1.864 7.035-1.864 2.205 0 4.21.45 6.013 1.353 1.804.902 3.268 2.154 4.39 3.758l-2.706 2.646-.42.42-.301-.3c0-.36-.07-.692-.21-.992-.141-.3-.452-.652-.933-1.053-.842-.761-1.764-1.312-2.766-1.653-1.002-.34-2.185-.511-3.548-.511-1.563 0-3.016.43-4.36 1.293-1.342.861-2.414 2.074-3.216 3.638-.802 1.563-1.203 3.367-1.203 5.411 0 2.045.411 3.889 1.233 5.532.822 1.644 1.964 2.927 3.427 3.849 1.464.922 3.097 1.383 4.901 1.383 2.766 0 5.151-1.123 7.156-3.368l2.525 2.947c-2.686 2.886-5.993 4.33-9.921 4.33-2.646 0-5.011-.622-7.096-1.865zm25.222-.12c-1.924-1.203-3.427-2.886-4.51-5.051-1.082-2.165-1.623-4.63-1.623-7.396s.541-5.232 1.623-7.396c1.083-2.165 2.586-3.859 4.51-5.081 1.925-1.223 4.11-1.834 6.555-1.834 2.445 0 4.63.611 6.554 1.834 1.924 1.222 3.427 2.916 4.51 5.08 1.082 2.165 1.623 4.63 1.623 7.397 0 2.766-.54 5.231-1.623 7.396s-2.586 3.848-4.51 5.051c-1.924 1.203-4.109 1.804-6.554 1.804-2.446 0-4.63-.601-6.555-1.804zm10.734-3.187c1.222-.922 2.185-2.195 2.886-3.818.702-1.624 1.052-3.458 1.052-5.502 0-3.127-.761-5.683-2.285-7.667-1.523-1.984-3.467-2.977-5.832-2.977-2.366 0-4.31.993-5.833 2.977-1.523 1.984-2.285 4.54-2.285 7.667 0 2.044.35 3.878 1.052 5.502.702 1.623 1.664 2.896 2.887 3.818 1.222.922 2.615 1.383 4.179 1.383 1.563 0 2.956-.46 4.179-1.383zm17.205 3.458c-1.723-1.103-3.126-2.756-4.209-4.961-1.082-2.205-1.623-4.87-1.623-7.998 0-3.167.561-5.812 1.683-7.937 1.123-2.125 2.566-3.698 4.33-4.72 1.764-1.023 3.628-1.534 5.592-1.534 1.844 0 3.458.421 4.84 1.263 1.384.842 2.436 2.004 3.158 3.488V.465h4.57v.42c-.241.241-.391.502-.452.782-.06.28-.09.762-.09 1.443l.06 33.073c0 .962.03 1.753.09 2.375.06.621.231 1.252.512 1.894h-4.27a6.212 6.212 0 0 1-.51-1.894c-.06-.622-.09-1.413-.09-2.375-.883 1.523-2.015 2.716-3.398 3.577-1.383.862-2.937 1.293-4.66 1.293-1.965 0-3.809-.551-5.533-1.653zm11.666-5.081c1.162-1.965 1.744-4.55 1.744-7.757 0-3.248-.632-5.853-1.894-7.817-1.263-1.965-3.157-2.947-5.683-2.947-2.405 0-4.25.892-5.532 2.676-1.283 1.784-1.924 4.22-1.924 7.306 0 3.528.671 6.324 2.014 8.388 1.343 2.065 3.277 3.097 5.803 3.097 2.485 0 4.31-.982 5.472-2.946zm13.166 3.006c-2.425-2.485-3.638-5.993-3.638-10.523 0-3.006.561-5.602 1.684-7.787 1.122-2.185 2.635-3.848 4.54-4.99 1.904-1.143 4.038-1.715 6.404-1.715 3.327 0 6.023 1.103 8.087 3.308 2.065 2.205 3.097 5.452 3.097 9.741 0 .44-.04 1.102-.12 1.984h-19.543c.16 3.368 1.102 5.913 2.826 7.637 1.724 1.724 3.909 2.586 6.555 2.586 2.886 0 5.25-1.023 7.095-3.067l2.405 2.345c-2.325 2.806-5.532 4.21-9.62 4.21-4.09 0-7.347-1.243-9.772-3.729zm15.784-13.35c0-2.565-.651-4.6-1.954-6.102-1.303-1.504-3.016-2.255-5.141-2.255-2.005 0-3.748.701-5.232 2.104-1.483 1.403-2.405 3.488-2.766 6.254h15.093zm28.677-8.658l-1.924 3.367-.24.542-.421-.24c-.12-.442-.26-.793-.421-1.053-.16-.26-.501-.551-1.022-.872-1.043-.682-2.225-1.022-3.548-1.022-1.443 0-2.806.36-4.089 1.082-1.283.722-2.325 1.814-3.127 3.277-.802 1.463-1.202 3.297-1.202 5.502v14.612h-4.39v-27.54h4.51l-.12 5.051c.761-1.804 1.934-3.207 3.517-4.21a9.535 9.535 0 0 1 5.202-1.503c2.926 0 5.351 1.003 7.275 3.007zm.487 21.407l2.405-4.09.361-.54.36.24c0 .08.03.26.091.541.06.281.17.562.33.842.161.28.382.561.662.842a9.88 9.88 0 0 0 3.157 2.135c1.183.5 2.656.751 4.42.751 2.164 0 3.868-.39 5.11-1.172 1.244-.782 1.865-1.854 1.865-3.217 0-1.163-.501-2.125-1.503-2.887-1.003-.761-2.806-1.563-5.412-2.405-6.895-1.964-10.343-4.81-10.343-8.538 0-2.125.872-3.809 2.616-5.051 1.744-1.243 4.24-1.865 7.486-1.865 2.486 0 4.58.351 6.284 1.053 1.704.701 3.257 1.794 4.66 3.277l-2.465 3.007-.421.48-.3-.3c-.04-.441-.131-.802-.271-1.082-.14-.281-.431-.602-.872-.963a10.233 10.233 0 0 0-3.097-1.653 10.695 10.695 0 0 0-3.397-.571c-1.724 0-3.137.3-4.24.902-1.102.6-1.653 1.443-1.653 2.525 0 1.002.56 1.924 1.683 2.766 1.123.842 3.147 1.684 6.074 2.526 3.447 1.042 5.882 2.174 7.306 3.397 1.423 1.223 2.134 2.816 2.134 4.78 0 2.486-.972 4.54-2.916 6.164-1.944 1.623-4.76 2.435-8.449 2.435-4.65 0-8.538-1.443-11.665-4.33z" fill="white"/></svg>
