<svg width="340" height="69" viewBox="0 0 340 69" xmlns="http://www.w3.org/2000/svg"><path d="M210.33 52.005h2.31v1.575a4.5 4.5 0 0 1 1.435-1.417c.583-.362 1.19-.543 1.82-.543.7 0 1.312.222 1.837.665.526.443.858 1.003.998 1.68a3.82 3.82 0 0 1 1.435-1.698 3.853 3.853 0 0 1 2.17-.647c1.05 0 1.837.38 2.362 1.138.526.758.765 1.744.718 2.957V68h-2.31V56.66c0-1.33-.128-2.193-.385-2.59-.257-.397-.63-.595-1.12-.595-.42 0-.828.198-1.225.595-.397.397-.717.904-.963 1.523a4.96 4.96 0 0 0-.367 1.837V68H216.7V56.87c0-1.307-.122-2.187-.367-2.642-.246-.456-.706-.683-1.383-.683-.35 0-.706.157-1.067.472-.362.316-.66.759-.893 1.33-.233.572-.35 1.231-.35 1.978V68h-2.31V52.005zm29.067 1.435c1.202 1.19 1.803 3.208 1.803 6.055V68h-2.73v-2.45c-.98 1.89-2.8 2.835-5.46 2.835-1.773 0-3.162-.402-4.165-1.208-1.003-.805-1.505-1.872-1.505-3.202 0-1.12.362-2.1 1.085-2.94.723-.84 1.697-1.487 2.922-1.942 1.226-.456 2.573-.683 4.043-.683 1.33 0 2.532.07 3.605.21-.14-1.797-.612-3.062-1.418-3.797-.805-.736-2-1.103-3.587-1.103-.793 0-1.557.152-2.293.455a6.429 6.429 0 0 0-2.012 1.33l-1.225-1.61c1.493-1.493 3.395-2.24 5.705-2.24 2.287 0 4.03.595 5.233 1.785zm-2.047 11.498c1.003-1.016 1.552-2.48 1.645-4.393a22.119 22.119 0 0 0-3.395-.245c-1.773 0-3.173.292-4.2.875-1.027.583-1.54 1.47-1.54 2.66 0 1.75 1.132 2.625 3.395 2.625 1.727 0 3.092-.507 4.095-1.522zm9.87 2.45c-1.003-.642-1.82-1.605-2.45-2.888-.63-1.283-.945-2.835-.945-4.655 0-1.843.327-3.383.98-4.62s1.493-2.152 2.52-2.748a6.393 6.393 0 0 1 3.255-.892c1.073 0 2.012.245 2.817.735a4.763 4.763 0 0 1 1.838 2.03v-9.625h2.66v.245a.914.914 0 0 0-.262.455c-.035.163-.053.443-.053.84l.035 19.25c0 .56.017 1.02.053 1.382.034.362.134.73.297 1.103h-2.485a3.616 3.616 0 0 1-.297-1.103 14.85 14.85 0 0 1-.053-1.382c-.513.887-1.172 1.58-1.977 2.082-.806.502-1.71.753-2.713.753-1.143 0-2.217-.32-3.22-.962zm6.79-2.958c.677-1.143 1.015-2.648 1.015-4.515 0-1.89-.367-3.407-1.102-4.55-.736-1.143-1.838-1.715-3.308-1.715-1.4 0-2.473.52-3.22 1.558-.747 1.038-1.12 2.455-1.12 4.252 0 2.053.39 3.68 1.172 4.883.782 1.201 1.908 1.802 3.378 1.802 1.447 0 2.508-.572 3.185-1.715zm20.895-11.06l-1.12 1.96-.14.315-.245-.14a2.379 2.379 0 0 0-.245-.613c-.093-.151-.292-.32-.595-.507-.607-.397-1.295-.595-2.065-.595-.84 0-1.633.21-2.38.63-.747.42-1.353 1.056-1.82 1.907-.467.852-.7 1.92-.7 3.203v8.505h-2.555v-16.03h2.625l-.07 2.94c.443-1.05 1.126-1.867 2.047-2.45a5.55 5.55 0 0 1 3.028-.875c1.703 0 3.115.583 4.235 1.75zM279 65.97h4.095V54.035h-3.885v-2.03h6.405V65.97h3.745V68H279v-2.03zm3.955-17.85c-.35-.35-.525-.77-.525-1.26 0-.513.17-.945.507-1.295.339-.35.765-.525 1.278-.525.49 0 .916.18 1.278.543.361.361.542.787.542 1.277 0 .49-.18.91-.543 1.26-.361.35-.787.525-1.277.525-.49 0-.91-.175-1.26-.525zm14.14 19.268c-1.003-.642-1.82-1.605-2.45-2.888-.63-1.283-.945-2.835-.945-4.655 0-1.843.327-3.383.98-4.62s1.493-2.152 2.52-2.748a6.393 6.393 0 0 1 3.255-.892c1.073 0 2.012.245 2.817.735a4.763 4.763 0 0 1 1.838 2.03v-9.625h2.66v.245a.914.914 0 0 0-.262.455c-.035.163-.053.443-.053.84l.035 19.25c0 .56.017 1.02.053 1.382.034.362.134.73.297 1.103h-2.485a3.616 3.616 0 0 1-.298-1.103 14.85 14.85 0 0 1-.052-1.382c-.513.887-1.172 1.58-1.978 2.082-.805.502-1.709.753-2.712.753-1.143 0-2.217-.32-3.22-.962zm6.79-2.958c.677-1.143 1.015-2.648 1.015-4.515 0-1.89-.367-3.407-1.102-4.55-.736-1.143-1.838-1.715-3.308-1.715-1.4 0-2.473.52-3.22 1.558-.747 1.038-1.12 2.455-1.12 4.252 0 2.053.39 3.68 1.173 4.883.781 1.201 1.907 1.802 3.377 1.802 1.447 0 2.508-.572 3.185-1.715z" fill="#ff5e00"/><path d="M.515 37.269L17.58.42l3.271 1.685-17.119 36.74-3.217-1.576zm318.688 0L336.268.42l3.271 1.685-17.119 36.74-3.217-1.576z" fill="#4c4b68"/><path d="M30.392 45.15a8.857 8.857 0 0 1-3.49-2.61l2.181-2.934.327-.435.328.217c0 .073.027.227.081.462.055.236.155.48.3.734.146.254.364.49.654.707 1.164.906 2.508 1.358 4.035 1.358 1.708 0 3.071-.58 4.089-1.739 1.017-1.16 1.526-2.935 1.526-5.326V14.931h-9.268v-3.206h13.248v23.642c0 3.587-.89 6.259-2.671 8.016-1.781 1.757-4.071 2.636-6.87 2.636-1.599 0-3.089-.29-4.47-.87zM40.15 5.691a2.664 2.664 0 0 1-.818-1.957c0-.797.263-1.467.79-2.01.527-.544 1.19-.816 1.99-.816.764 0 1.427.28 1.99.843.564.561.845 1.222.845 1.983 0 .761-.281 1.413-.845 1.957-.563.543-1.226.815-1.99.815a2.68 2.68 0 0 1-1.962-.815zm14.125 29.675c-1.745-1.087-3.107-2.61-4.089-4.566-.981-1.956-1.472-4.185-1.472-6.685s.49-4.728 1.472-6.685c.982-1.956 2.344-3.487 4.09-4.592 1.744-1.105 3.725-1.658 5.942-1.658s4.198.553 5.942 1.658c1.745 1.105 3.108 2.636 4.09 4.592.98 1.957 1.471 4.185 1.471 6.685s-.49 4.729-1.472 6.685c-.981 1.957-2.344 3.479-4.089 4.566-1.744 1.087-3.725 1.63-5.942 1.63s-4.198-.543-5.943-1.63zm9.732-2.88c1.108-.834 1.98-1.985 2.617-3.452.636-1.468.954-3.125.954-4.973 0-2.826-.69-5.136-2.072-6.93-1.381-1.793-3.144-2.69-5.288-2.69-2.145 0-3.908.897-5.289 2.69-1.38 1.794-2.071 4.104-2.071 6.93 0 1.848.318 3.505.954 4.973.636 1.467 1.508 2.618 2.617 3.451 1.108.833 2.371 1.25 3.789 1.25 1.417 0 2.68-.417 3.789-1.25zm13.637 1.765c-1.563-1.938-2.326-4.828-2.29-8.668l.055-13.86h3.816v13.86c0 2.97.518 5.118 1.554 6.44 1.036 1.323 2.408 1.984 4.116 1.984 1.89 0 3.48-.734 4.77-2.201 1.29-1.468 1.936-3.596 1.936-6.386V11.725h3.816v20.978c0 .87.027 1.586.082 2.147.054.562.209 1.133.463 1.712h-3.762a5.067 5.067 0 0 1-.463-1.685 23.17 23.17 0 0 1-.082-2.12 8.67 8.67 0 0 1-3.244 3.235c-1.363.779-2.862 1.168-4.497 1.168-2.617 0-4.707-.97-6.27-2.908zm41.494-20.408l-1.745 3.044-.218.489-.382-.217c-.109-.399-.236-.716-.381-.952-.146-.235-.454-.498-.927-.788-.945-.616-2.017-.924-3.217-.924a7.464 7.464 0 0 0-3.707.979c-1.163.652-2.108 1.64-2.835 2.962-.727 1.322-1.09 2.98-1.09 4.973v13.207h-3.98V11.725h4.089l-.11 4.565c.691-1.63 1.754-2.899 3.19-3.804a8.665 8.665 0 0 1 4.716-1.36c2.653 0 4.852.907 6.597 2.718zm3.241-2.12h3.817v4.403c.98-1.522 2.217-2.736 3.707-3.641 1.49-.906 3.071-1.36 4.743-1.36 2.217 0 3.989.843 5.316 2.528 1.326 1.685 1.99 4.303 1.99 7.854v15.054h-3.817V21.616c0-2.464-.418-4.257-1.254-5.38-.836-1.124-1.944-1.685-3.325-1.685-1.127 0-2.263.326-3.408.978-1.145.652-2.09 1.567-2.835 2.745-.745 1.177-1.117 2.509-1.117 3.994v14.294h-3.817V11.725zm28.048 23.643c-1.745-1.087-3.108-2.61-4.09-4.566-.98-1.956-1.471-4.185-1.471-6.685s.49-4.728 1.472-6.685c.981-1.956 2.344-3.487 4.089-4.592 1.744-1.105 3.725-1.658 5.942-1.658s4.198.553 5.943 1.658c1.744 1.105 3.107 2.636 4.089 4.592.981 1.957 1.472 4.185 1.472 6.685s-.49 4.729-1.472 6.685c-.982 1.957-2.345 3.479-4.09 4.566-1.744 1.087-3.725 1.63-5.942 1.63s-4.198-.543-5.942-1.63zm9.731-2.88c1.109-.834 1.981-1.985 2.617-3.452.636-1.468.954-3.125.954-4.973 0-2.826-.69-5.136-2.071-6.93-1.382-1.793-3.144-2.69-5.289-2.69-2.144 0-3.907.897-5.288 2.69-1.381 1.794-2.072 4.104-2.072 6.93 0 1.848.318 3.505.954 4.973.636 1.467 1.509 2.618 2.617 3.451 1.109.833 2.372 1.25 3.79 1.25 1.417 0 2.68-.417 3.788-1.25zm15.972 2.988c-1.89-1.123-3.371-2.672-4.443-4.647-1.073-1.974-1.609-4.194-1.609-6.657 0-2.464.536-4.674 1.609-6.631 1.072-1.957 2.553-3.496 4.443-4.62 1.89-1.123 4.016-1.685 6.379-1.685 1.999 0 3.816.408 5.452 1.223 1.635.816 2.962 1.948 3.98 3.397l-2.454 2.392-.382.38-.272-.272c0-.326-.064-.625-.191-.897-.127-.271-.409-.588-.845-.95a7.154 7.154 0 0 0-2.508-1.495c-.909-.308-1.98-.462-3.217-.462-1.417 0-2.735.39-3.952 1.168-1.218.78-2.19 1.875-2.917 3.288-.727 1.414-1.09 3.044-1.09 4.892 0 1.848.372 3.514 1.117 5 .745 1.486 1.781 2.645 3.108 3.478 1.327.834 2.808 1.25 4.443 1.25 2.508 0 4.67-1.014 6.488-3.043l2.29 2.663c-2.435 2.609-5.434 3.913-8.996 3.913-2.399 0-4.543-.561-6.433-1.685zm22.868-.108c-1.744-1.087-3.107-2.61-4.089-4.566-.981-1.956-1.472-4.185-1.472-6.685s.49-4.728 1.472-6.685c.982-1.956 2.345-3.487 4.09-4.592 1.744-1.105 3.725-1.658 5.942-1.658s4.198.553 5.942 1.658c1.745 1.105 3.108 2.636 4.09 4.592.98 1.957 1.471 4.185 1.471 6.685s-.49 4.729-1.472 6.685c-.981 1.957-2.344 3.479-4.089 4.566-1.744 1.087-3.725 1.63-5.942 1.63s-4.198-.543-5.943-1.63zm9.732-2.88c1.108-.834 1.98-1.985 2.617-3.452.636-1.468.954-3.125.954-4.973 0-2.826-.69-5.136-2.072-6.93-1.381-1.793-3.144-2.69-5.288-2.69-2.145 0-3.907.897-5.289 2.69-1.38 1.794-2.071 4.104-2.071 6.93 0 1.848.318 3.505.954 4.973.636 1.467 1.508 2.618 2.617 3.451 1.108.833 2.371 1.25 3.789 1.25 1.417 0 2.68-.417 3.789-1.25zm15.6 3.124c-1.563-.996-2.835-2.49-3.817-4.484-.981-1.992-1.472-4.402-1.472-7.228 0-2.863.51-5.254 1.527-7.174 1.017-1.92 2.326-3.343 3.925-4.267 1.6-.924 3.29-1.386 5.07-1.386 1.672 0 3.135.38 4.39 1.142a7.405 7.405 0 0 1 2.861 3.152V.42h4.144V.8a1.418 1.418 0 0 0-.409.707c-.055.254-.082.688-.082 1.304l.055 29.892c0 .87.027 1.586.082 2.147.054.562.209 1.133.463 1.712h-3.87a5.601 5.601 0 0 1-.464-1.712 22.987 22.987 0 0 1-.082-2.147c-.8 1.377-1.826 2.455-3.08 3.234-1.254.78-2.663 1.169-4.226 1.169-1.78 0-3.453-.498-5.015-1.495zm10.576-4.592c1.054-1.776 1.581-4.113 1.581-7.011 0-2.935-.572-5.29-1.717-7.066-1.145-1.775-2.862-2.663-5.152-2.663-2.18 0-3.853.806-5.016 2.419-1.163 1.612-1.744 3.813-1.744 6.603 0 3.189.608 5.716 1.826 7.582 1.218 1.866 2.971 2.799 5.261 2.799 2.254 0 3.907-.888 4.961-2.663zm11.937 2.717c-2.198-2.246-3.298-5.417-3.298-9.511 0-2.717.509-5.064 1.527-7.038 1.017-1.975 2.39-3.479 4.116-4.511 1.726-1.033 3.662-1.55 5.806-1.55 3.017 0 5.461.997 7.333 2.99 1.872 1.993 2.808 4.928 2.808 8.805 0 .398-.037.996-.11 1.793h-17.718c.145 3.044 1 5.344 2.562 6.902 1.563 1.559 3.544 2.338 5.943 2.338 2.617 0 4.761-.924 6.433-2.772l2.18 2.12c-2.107 2.536-5.015 3.804-8.722 3.804-3.708 0-6.66-1.123-8.86-3.37zm14.312-12.065c0-2.32-.59-4.158-1.772-5.517-1.181-1.359-2.735-2.038-4.662-2.038-1.817 0-3.398.634-4.743 1.902-1.345 1.268-2.18 3.152-2.508 5.653h13.685zm26-7.827l-1.744 3.044-.218.489-.382-.217c-.11-.399-.236-.716-.382-.952-.145-.235-.454-.498-.927-.788-.945-.616-2.017-.924-3.216-.924a7.464 7.464 0 0 0-3.707.979c-1.163.652-2.108 1.64-2.835 2.962-.727 1.322-1.09 2.98-1.09 4.973v13.207h-3.98V11.725h4.088l-.109 4.565c.69-1.63 1.754-2.899 3.19-3.804a8.665 8.665 0 0 1 4.715-1.36c2.654 0 4.853.907 6.597 2.718zm.441 19.349l2.181-3.696.327-.49.327.218c0 .073.028.236.082.49.055.253.155.507.3.76.145.254.345.507.6.761a8.959 8.959 0 0 0 2.862 1.93c1.072.452 2.408.679 4.007.679 1.963 0 3.507-.353 4.634-1.06 1.127-.707 1.69-1.676 1.69-2.908 0-1.05-.454-1.92-1.363-2.608-.908-.689-2.544-1.414-4.906-2.174-6.252-1.776-9.378-4.348-9.378-7.718 0-1.92.79-3.442 2.372-4.565 1.581-1.124 3.843-1.685 6.788-1.685 2.253 0 4.152.317 5.697.95 1.544.635 2.953 1.622 4.225 2.963l-2.235 2.717-.382.435-.273-.272c-.036-.398-.118-.724-.245-.978-.127-.253-.39-.543-.79-.87a9.287 9.287 0 0 0-2.808-1.494 9.724 9.724 0 0 0-3.08-.516c-1.563 0-2.844.271-3.844.815-1 .543-1.5 1.304-1.5 2.283 0 .905.51 1.739 1.527 2.5 1.018.76 2.853 1.521 5.507 2.282 3.125.942 5.333 1.966 6.624 3.071 1.29 1.105 1.935 2.545 1.935 4.32 0 2.247-.881 4.104-2.644 5.572-1.763 1.467-4.316 2.2-7.66 2.2-4.216 0-7.742-1.304-10.577-3.912z" fill="white"/></svg>
