<svg width="620" height="76" viewBox="0 0 620 76" xmlns="http://www.w3.org/2000/svg"><g><path d="M50.08 74.22c-2.28-.96-4.2-2.4-5.76-4.32l3.6-4.86.54-.72.54.36c0 .12.045.375.135.765.09.39.255.795.495 1.215.24.42.6.81 1.08 1.17 1.92 1.5 4.14 2.25 6.66 2.25 2.82 0 5.07-.96 6.75-2.88 1.68-1.92 2.52-4.86 2.52-8.82v-34.2h-15.3v-5.31h21.87v39.15c0 5.94-1.47 10.365-4.41 13.275-2.94 2.91-6.72 4.365-11.34 4.365-2.64 0-5.1-.48-7.38-1.44zM66.19 8.88c-.9-.9-1.35-1.98-1.35-3.24 0-1.32.435-2.43 1.305-3.33.87-.9 1.965-1.35 3.285-1.35 1.26 0 2.355.465 3.285 1.395.93.93 1.395 2.025 1.395 3.285 0 1.26-.465 2.34-1.395 3.24-.93.9-2.025 1.35-3.285 1.35-1.26 0-2.34-.45-3.24-1.35zm31.5 49.14c-2.88-1.8-5.13-4.32-6.75-7.56-1.62-3.24-2.43-6.93-2.43-11.07 0-4.14.81-7.83 2.43-11.07s3.87-5.775 6.75-7.605 6.15-2.745 9.81-2.745 6.93.915 9.81 2.745c2.88 1.83 5.13 4.365 6.75 7.605s2.43 6.93 2.43 11.07c0 4.14-.81 7.83-2.43 11.07s-3.87 5.76-6.75 7.56c-2.88 1.8-6.15 2.7-9.81 2.7s-6.93-.9-9.81-2.7zm16.065-4.77c1.83-1.38 3.27-3.285 4.32-5.715 1.05-2.43 1.575-5.175 1.575-8.235 0-4.68-1.14-8.505-3.42-11.475-2.28-2.97-5.19-4.455-8.73-4.455s-6.45 1.485-8.73 4.455c-2.28 2.97-3.42 6.795-3.42 11.475 0 3.06.525 5.805 1.575 8.235 1.05 2.43 2.49 4.335 4.32 5.715s3.915 2.07 6.255 2.07 4.425-.69 6.255-2.07zm25.785 2.925c-2.58-3.21-3.84-7.995-3.78-14.355l.09-22.95h6.3v22.95c0 4.92.855 8.475 2.565 10.665 1.71 2.19 3.975 3.285 6.795 3.285 3.12 0 5.745-1.215 7.875-3.645 2.13-2.43 3.195-5.955 3.195-10.575V18.87h6.3v34.74c0 1.44.045 2.625.135 3.555.09.93.345 1.875.765 2.835h-6.21c-.42-.9-.675-1.83-.765-2.79-.09-.96-.135-2.13-.135-3.51-1.32 2.28-3.105 4.065-5.355 5.355-2.25 1.29-4.725 1.935-7.425 1.935-4.32 0-7.77-1.605-10.35-4.815zm76.68-33.795l-2.88 5.04-.36.81-.63-.36c-.18-.66-.39-1.185-.63-1.575-.24-.39-.75-.825-1.53-1.305-1.56-1.02-3.33-1.53-5.31-1.53-2.16 0-4.2.54-6.12 1.62s-3.48 2.715-4.68 4.905c-1.2 2.19-1.8 4.935-1.8 8.235v21.87h-6.57V18.87h6.75l-.18 7.56c1.14-2.7 2.895-4.8 5.265-6.3 2.37-1.5 4.965-2.25 7.785-2.25 4.38 0 8.01 1.5 10.89 4.5zm10.26-3.51h6.3v7.29c1.62-2.52 3.66-4.53 6.12-6.03s5.07-2.25 7.83-2.25c3.66 0 6.585 1.395 8.775 4.185 2.19 2.79 3.285 7.125 3.285 13.005V60h-6.3V35.25c0-4.08-.69-7.05-2.07-8.91-1.38-1.86-3.21-2.79-5.49-2.79-1.86 0-3.735.54-5.625 1.62-1.89 1.08-3.45 2.595-4.68 4.545-1.23 1.95-1.845 4.155-1.845 6.615V60h-6.3V18.87zm51.21 39.15c-2.88-1.8-5.13-4.32-6.75-7.56-1.62-3.24-2.43-6.93-2.43-11.07 0-4.14.81-7.83 2.43-11.07s3.87-5.775 6.75-7.605 6.15-2.745 9.81-2.745 6.93.915 9.81 2.745c2.88 1.83 5.13 4.365 6.75 7.605s2.43 6.93 2.43 11.07c0 4.14-.81 7.83-2.43 11.07s-3.87 5.76-6.75 7.56c-2.88 1.8-6.15 2.7-9.81 2.7s-6.93-.9-9.81-2.7zm16.065-4.77c1.83-1.38 3.27-3.285 4.32-5.715 1.05-2.43 1.575-5.175 1.575-8.235 0-4.68-1.14-8.505-3.42-11.475-2.28-2.97-5.19-4.455-8.73-4.455s-6.45 1.485-8.73 4.455c-2.28 2.97-3.42 6.795-3.42 11.475 0 3.06.525 5.805 1.575 8.235 1.05 2.43 2.49 4.335 4.32 5.715s3.915 2.07 6.255 2.07 4.425-.69 6.255-2.07zm31.275 4.95c-3.12-1.86-5.565-4.425-7.335-7.695-1.77-3.27-2.655-6.945-2.655-11.025s.885-7.74 2.655-10.98c1.77-3.24 4.215-5.79 7.335-7.65 3.12-1.86 6.63-2.79 10.53-2.79 3.3 0 6.3.675 9 2.025 2.7 1.35 4.89 3.225 6.57 5.625l-4.05 3.96-.63.63-.45-.45c0-.54-.105-1.035-.315-1.485-.21-.45-.675-.975-1.395-1.575-1.26-1.14-2.64-1.965-4.14-2.475-1.5-.51-3.27-.765-5.31-.765-2.34 0-4.515.645-6.525 1.935-2.01 1.29-3.615 3.105-4.815 5.445-1.2 2.34-1.8 5.04-1.8 8.1 0 3.06.615 5.82 1.845 8.28 1.23 2.46 2.94 4.38 5.13 5.76s4.635 2.07 7.335 2.07c4.14 0 7.71-1.68 10.71-5.04l3.78 4.41c-4.02 4.32-8.97 6.48-14.85 6.48-3.96 0-7.5-.93-10.62-2.79zm42.66-.18c-2.88-1.8-5.13-4.32-6.75-7.56-1.62-3.24-2.43-6.93-2.43-11.07 0-4.14.81-7.83 2.43-11.07s3.87-5.775 6.75-7.605 6.15-2.745 9.81-2.745 6.93.915 9.81 2.745c2.88 1.83 5.13 4.365 6.75 7.605s2.43 6.93 2.43 11.07c0 4.14-.81 7.83-2.43 11.07s-3.87 5.76-6.75 7.56c-2.88 1.8-6.15 2.7-9.81 2.7s-6.93-.9-9.81-2.7zm16.065-4.77c1.83-1.38 3.27-3.285 4.32-5.715 1.05-2.43 1.575-5.175 1.575-8.235 0-4.68-1.14-8.505-3.42-11.475-2.28-2.97-5.19-4.455-8.73-4.455s-6.45 1.485-8.73 4.455c-2.28 2.97-3.42 6.795-3.42 11.475 0 3.06.525 5.805 1.575 8.235 1.05 2.43 2.49 4.335 4.32 5.715s3.915 2.07 6.255 2.07 4.425-.69 6.255-2.07zm29.025 5.175c-2.58-1.65-4.68-4.125-6.3-7.425s-2.43-7.29-2.43-11.97c0-4.74.84-8.7 2.52-11.88 1.68-3.18 3.84-5.535 6.48-7.065 2.64-1.53 5.43-2.295 8.37-2.295 2.76 0 5.175.63 7.245 1.89 2.07 1.26 3.645 3 4.725 5.22V.15h6.84v.63c-.36.36-.585.75-.675 1.17-.09.42-.135 1.14-.135 2.16l.09 49.5c0 1.44.045 2.625.135 3.555.09.93.345 1.875.765 2.835h-6.39c-.42-.96-.675-1.905-.765-2.835-.09-.93-.135-2.115-.135-3.555-1.32 2.28-3.015 4.065-5.085 5.355S423.64 60.9 421.06 60.9c-2.94 0-5.7-.825-8.28-2.475zm17.46-7.605c1.74-2.94 2.61-6.81 2.61-11.61 0-4.86-.945-8.76-2.835-11.7-1.89-2.94-4.725-4.41-8.505-4.41-3.6 0-6.36 1.335-8.28 4.005-1.92 2.67-2.88 6.315-2.88 10.935 0 5.28 1.005 9.465 3.015 12.555 2.01 3.09 4.905 4.635 8.685 4.635 3.72 0 6.45-1.47 8.19-4.41zm24.615 4.5c-3.63-3.72-5.445-8.97-5.445-15.75 0-4.5.84-8.385 2.52-11.655 1.68-3.27 3.945-5.76 6.795-7.47s6.045-2.565 9.585-2.565c4.98 0 9.015 1.65 12.105 4.95 3.09 3.3 4.635 8.16 4.635 14.58 0 .66-.06 1.65-.18 2.97h-29.25c.24 5.04 1.65 8.85 4.23 11.43 2.58 2.58 5.85 3.87 9.81 3.87 4.32 0 7.86-1.53 10.62-4.59l3.6 3.51c-3.48 4.2-8.28 6.3-14.4 6.3-6.12 0-10.995-1.86-14.625-5.58zm23.625-19.98c0-3.84-.975-6.885-2.925-9.135-1.95-2.25-4.515-3.375-7.695-3.375-3 0-5.61 1.05-7.83 3.15-2.22 2.1-3.6 5.22-4.14 9.36h22.59zm52.74-12.96l-2.88 5.04-.36.81-.63-.36c-.18-.66-.39-1.185-.63-1.575-.24-.39-.75-.825-1.53-1.305-1.56-1.02-3.33-1.53-5.31-1.53-2.16 0-4.2.54-6.12 1.62s-3.48 2.715-4.68 4.905c-1.2 2.19-1.8 4.935-1.8 8.235v21.87h-6.57V18.87h6.75l-.18 7.56c1.14-2.7 2.895-4.8 5.265-6.3 2.37-1.5 4.965-2.25 7.785-2.25 4.38 0 8.01 1.5 10.89 4.5zm8.91 32.04l3.6-6.12.54-.81.54.36c0 .12.045.39.135.81.09.42.255.84.495 1.26.24.42.57.84.99 1.26a14.786 14.786 0 0 0 4.725 3.195c1.77.75 3.975 1.125 6.615 1.125 3.24 0 5.79-.585 7.65-1.755 1.86-1.17 2.79-2.775 2.79-4.815 0-1.74-.75-3.18-2.25-4.32-1.5-1.14-4.2-2.34-8.1-3.6-10.32-2.94-15.48-7.2-15.48-12.78 0-3.18 1.305-5.7 3.915-7.56 2.61-1.86 6.345-2.79 11.205-2.79 3.72 0 6.855.525 9.405 1.575 2.55 1.05 4.875 2.685 6.975 4.905l-3.69 4.5-.63.72-.45-.45c-.06-.66-.195-1.2-.405-1.62-.21-.42-.645-.9-1.305-1.44a15.316 15.316 0 0 0-4.635-2.475c-1.71-.57-3.405-.855-5.085-.855-2.58 0-4.695.45-6.345 1.35-1.65.9-2.475 2.16-2.475 3.78 0 1.5.84 2.88 2.52 4.14 1.68 1.26 4.71 2.52 9.09 3.78 5.16 1.56 8.805 3.255 10.935 5.085 2.13 1.83 3.195 4.215 3.195 7.155 0 3.72-1.455 6.795-4.365 9.225-2.91 2.43-7.125 3.645-12.645 3.645-6.96 0-12.78-2.16-17.46-6.48z" fill="#DAD7FF"/><path d="M585.76 61.17L613.93.15l5.4 2.79-28.26 60.84-5.31-2.61zm-585 0L28.93.15l5.4 2.79L6.07 63.78.76 61.17z" fill="#4C4B68"/></g></svg>
